<svg id="visual" viewBox="0 0 540 960" width="540" height="960" xmlns="http://www.w3.org/2000/svg" xmlns:xlink="http://www.w3.org/1999/xlink" version="1.1"><rect x="0" y="0" width="540" height="960" fill="#161615"></rect><defs><linearGradient id="grad1_0" x1="0%" y1="100%" x2="100%" y2="0%"><stop offset="30%" stop-color="#9d4edd" stop-opacity="1"></stop><stop offset="70%" stop-color="#9d4edd" stop-opacity="1"></stop></linearGradient></defs><defs><linearGradient id="grad1_1" x1="0%" y1="100%" x2="100%" y2="0%"><stop offset="30%" stop-color="#9d4edd" stop-opacity="1"></stop><stop offset="70%" stop-color="#b4218d" stop-opacity="1"></stop></linearGradient></defs><defs><linearGradient id="grad1_2" x1="0%" y1="100%" x2="100%" y2="0%"><stop offset="30%" stop-color="#a0184c" stop-opacity="1"></stop><stop offset="70%" stop-color="#b4218d" stop-opacity="1"></stop></linearGradient></defs><defs><linearGradient id="grad1_3" x1="0%" y1="100%" x2="100%" y2="0%"><stop offset="30%" stop-color="#a0184c" stop-opacity="1"></stop><stop offset="70%" stop-color="#792622" stop-opacity="1"></stop></linearGradient></defs><defs><linearGradient id="grad1_4" x1="0%" y1="100%" x2="100%" y2="0%"><stop offset="30%" stop-color="#4f290f" stop-opacity="1"></stop><stop offset="70%" stop-color="#792622" stop-opacity="1"></stop></linearGradient></defs><defs><linearGradient id="grad1_5" x1="0%" y1="100%" x2="100%" y2="0%"><stop offset="30%" stop-color="#4f290f" stop-opacity="1"></stop><stop offset="70%" stop-color="#2c230f" stop-opacity="1"></stop></linearGradient></defs><defs><linearGradient id="grad1_6" x1="0%" y1="100%" x2="100%" y2="0%"><stop offset="30%" stop-color="#161615" stop-opacity="1"></stop><stop offset="70%" stop-color="#2c230f" stop-opacity="1"></stop></linearGradient></defs><defs><linearGradient id="grad2_0" x1="0%" y1="100%" x2="100%" y2="0%"><stop offset="30%" stop-color="#9d4edd" stop-opacity="1"></stop><stop offset="70%" stop-color="#9d4edd" stop-opacity="1"></stop></linearGradient></defs><defs><linearGradient id="grad2_1" x1="0%" y1="100%" x2="100%" y2="0%"><stop offset="30%" stop-color="#b4218d" stop-opacity="1"></stop><stop offset="70%" stop-color="#9d4edd" stop-opacity="1"></stop></linearGradient></defs><defs><linearGradient id="grad2_2" x1="0%" y1="100%" x2="100%" y2="0%"><stop offset="30%" stop-color="#b4218d" stop-opacity="1"></stop><stop offset="70%" stop-color="#a0184c" stop-opacity="1"></stop></linearGradient></defs><defs><linearGradient id="grad2_3" x1="0%" y1="100%" x2="100%" y2="0%"><stop offset="30%" stop-color="#792622" stop-opacity="1"></stop><stop offset="70%" stop-color="#a0184c" stop-opacity="1"></stop></linearGradient></defs><defs><linearGradient id="grad2_4" x1="0%" y1="100%" x2="100%" y2="0%"><stop offset="30%" stop-color="#792622" stop-opacity="1"></stop><stop offset="70%" stop-color="#4f290f" stop-opacity="1"></stop></linearGradient></defs><defs><linearGradient id="grad2_5" x1="0%" y1="100%" x2="100%" y2="0%"><stop offset="30%" stop-color="#2c230f" stop-opacity="1"></stop><stop offset="70%" stop-color="#4f290f" stop-opacity="1"></stop></linearGradient></defs><defs><linearGradient id="grad2_6" x1="0%" y1="100%" x2="100%" y2="0%"><stop offset="30%" stop-color="#2c230f" stop-opacity="1"></stop><stop offset="70%" stop-color="#161615" stop-opacity="1"></stop></linearGradient></defs><g transform="translate(540, 960)"><path d="M-324 0C-306.3 -40 -288.5 -80.1 -266.1 -110.2C-243.6 -140.4 -216.5 -160.7 -194.5 -194.5C-172.4 -228.2 -155.5 -275.5 -124 -299.3C-92.4 -323.2 -46.2 -323.6 0 -324L0 0Z" fill="#201d12"></path><path d="M-277.7 0C-262.5 -34.3 -247.3 -68.6 -228.1 -94.5C-208.8 -120.3 -185.6 -137.7 -166.7 -166.7C-147.8 -195.6 -133.3 -236.1 -106.3 -256.6C-79.2 -277 -39.6 -277.4 0 -277.7L0 0Z" fill="#3c270d"></path><path d="M-231.4 0C-218.8 -28.6 -206.1 -57.2 -190.1 -78.7C-174 -100.3 -154.6 -114.8 -138.9 -138.9C-123.2 -163 -111.1 -196.8 -88.6 -213.8C-66 -230.8 -33 -231.1 0 -231.4L0 0Z" fill="#632916"></path><path d="M-185.1 0C-175 -22.9 -164.9 -45.7 -152 -63C-139.2 -80.2 -123.7 -91.8 -111.1 -111.1C-98.5 -130.4 -88.9 -157.4 -70.9 -171C-52.8 -184.7 -26.4 -184.9 0 -185.1L0 0Z" fill="#8d2034"></path><path d="M-138.9 0C-131.3 -17.2 -123.7 -34.3 -114 -47.2C-104.4 -60.2 -92.8 -68.9 -83.3 -83.3C-73.9 -97.8 -66.7 -118.1 -53.1 -128.3C-39.6 -138.5 -19.8 -138.7 0 -138.9L0 0Z" fill="#ad166a"></path><path d="M-92.6 0C-87.5 -11.4 -82.4 -22.9 -76 -31.5C-69.6 -40.1 -61.9 -45.9 -55.6 -55.6C-49.3 -65.2 -44.4 -78.7 -35.4 -85.5C-26.4 -92.3 -13.2 -92.5 0 -92.6L0 0Z" fill="#b035b4"></path><path d="M-46.3 0C-43.8 -5.7 -41.2 -11.4 -38 -15.7C-34.8 -20.1 -30.9 -23 -27.8 -27.8C-24.6 -32.6 -22.2 -39.4 -17.7 -42.8C-13.2 -46.2 -6.6 -46.2 0 -46.3L0 0Z" fill="#9d4edd"></path></g><g transform="translate(0, 0)"><path d="M324 0C324.3 47.5 324.6 95.1 299.3 124C274 152.9 223.1 163.2 192.3 192.3C161.5 221.5 150.8 269.6 122.1 294.7C93.4 319.8 46.7 321.9 0 324L0 0Z" fill="#201d12"></path><path d="M277.7 0C278 40.8 278.3 81.5 256.6 106.3C234.9 131 191.3 139.8 164.9 164.9C138.4 189.9 129.2 231.1 104.6 252.6C80 274.1 40 275.9 0 277.7L0 0Z" fill="#3c270d"></path><path d="M231.4 0C231.7 34 231.9 67.9 213.8 88.6C195.7 109.2 159.4 116.5 137.4 137.4C115.4 158.2 107.7 192.6 87.2 210.5C66.7 228.4 33.3 229.9 0 231.4L0 0Z" fill="#632916"></path><path d="M185.1 0C185.3 27.2 185.5 54.3 171 70.9C156.6 87.4 127.5 93.2 109.9 109.9C92.3 126.6 86.2 154.1 69.8 168.4C53.4 182.8 26.7 183.9 0 185.1L0 0Z" fill="#8d2034"></path><path d="M138.9 0C139 20.4 139.1 40.8 128.3 53.1C117.4 65.5 95.6 69.9 82.4 82.4C69.2 94.9 64.6 115.6 52.3 126.3C40 137.1 20 138 0 138.9L0 0Z" fill="#ad166a"></path><path d="M92.6 0C92.7 13.6 92.8 27.2 85.5 35.4C78.3 43.7 63.8 46.6 55 55C46.1 63.3 43.1 77 34.9 84.2C26.7 91.4 13.3 92 0 92.6L0 0Z" fill="#b035b4"></path><path d="M46.3 0C46.3 6.8 46.4 13.6 42.8 17.7C39.1 21.8 31.9 23.3 27.5 27.5C23.1 31.6 21.5 38.5 17.4 42.1C13.3 45.7 6.7 46 0 46.3L0 0Z" fill="#9d4edd"></path></g></svg>