<svg id="visual" viewBox="0 0 900 900" width="900" height="900" xmlns="http://www.w3.org/2000/svg" xmlns:xlink="http://www.w3.org/1999/xlink" version="1.1"><rect x="0" y="0" width="900" height="900" fill="#161615"></rect><defs><linearGradient id="grad1_0" x1="0%" y1="100%" x2="100%" y2="0%"><stop offset="30%" stop-color="#7b2cbf" stop-opacity="1"></stop><stop offset="70%" stop-color="#7b2cbf" stop-opacity="1"></stop></linearGradient></defs><defs><linearGradient id="grad1_1" x1="0%" y1="100%" x2="100%" y2="0%"><stop offset="30%" stop-color="#7b2cbf" stop-opacity="1"></stop><stop offset="70%" stop-color="#990068" stop-opacity="1"></stop></linearGradient></defs><defs><linearGradient id="grad1_2" x1="0%" y1="100%" x2="100%" y2="0%"><stop offset="30%" stop-color="#7e0029" stop-opacity="1"></stop><stop offset="70%" stop-color="#990068" stop-opacity="1"></stop></linearGradient></defs><defs><linearGradient id="grad1_3" x1="0%" y1="100%" x2="100%" y2="0%"><stop offset="30%" stop-color="#7e0029" stop-opacity="1"></stop><stop offset="70%" stop-color="#541e07" stop-opacity="1"></stop></linearGradient></defs><defs><linearGradient id="grad1_4" x1="0%" y1="100%" x2="100%" y2="0%"><stop offset="30%" stop-color="#2e2005" stop-opacity="1"></stop><stop offset="70%" stop-color="#541e07" stop-opacity="1"></stop></linearGradient></defs><defs><linearGradient id="grad1_5" x1="0%" y1="100%" x2="100%" y2="0%"><stop offset="30%" stop-color="#2e2005" stop-opacity="1"></stop><stop offset="70%" stop-color="#161615" stop-opacity="1"></stop></linearGradient></defs><defs><linearGradient id="grad2_0" x1="0%" y1="100%" x2="100%" y2="0%"><stop offset="30%" stop-color="#7b2cbf" stop-opacity="1"></stop><stop offset="70%" stop-color="#7b2cbf" stop-opacity="1"></stop></linearGradient></defs><defs><linearGradient id="grad2_1" x1="0%" y1="100%" x2="100%" y2="0%"><stop offset="30%" stop-color="#990068" stop-opacity="1"></stop><stop offset="70%" stop-color="#7b2cbf" stop-opacity="1"></stop></linearGradient></defs><defs><linearGradient id="grad2_2" x1="0%" y1="100%" x2="100%" y2="0%"><stop offset="30%" stop-color="#990068" stop-opacity="1"></stop><stop offset="70%" stop-color="#7e0029" stop-opacity="1"></stop></linearGradient></defs><defs><linearGradient id="grad2_3" x1="0%" y1="100%" x2="100%" y2="0%"><stop offset="30%" stop-color="#541e07" stop-opacity="1"></stop><stop offset="70%" stop-color="#7e0029" stop-opacity="1"></stop></linearGradient></defs><defs><linearGradient id="grad2_4" x1="0%" y1="100%" x2="100%" y2="0%"><stop offset="30%" stop-color="#541e07" stop-opacity="1"></stop><stop offset="70%" stop-color="#2e2005" stop-opacity="1"></stop></linearGradient></defs><defs><linearGradient id="grad2_5" x1="0%" y1="100%" x2="100%" y2="0%"><stop offset="30%" stop-color="#161615" stop-opacity="1"></stop><stop offset="70%" stop-color="#2e2005" stop-opacity="1"></stop></linearGradient></defs><g transform="translate(900, 900)"><path d="M-318.2 0C-288.5 -17.2 -258.9 -34.5 -258.4 -59C-257.8 -83.5 -286.4 -115.3 -286.7 -138.1C-287 -160.8 -258.9 -174.5 -239.2 -190.8C-219.6 -207 -208.3 -225.8 -190.8 -239.2C-173.2 -252.7 -149.4 -260.8 -126.7 -263.1C-104 -265.4 -82.6 -261.8 -61.6 -270.1C-40.7 -278.3 -20.4 -298.2 0 -318.2L0 0Z" fill="#201c0e"></path><path d="M-265.2 0C-240.5 -14.4 -215.7 -28.7 -215.3 -49.1C-214.9 -69.6 -238.7 -96.1 -238.9 -115.1C-239.1 -134 -215.7 -145.5 -199.4 -159C-183 -172.5 -173.6 -188.2 -159 -199.4C-144.4 -210.6 -124.5 -217.3 -105.6 -219.2C-86.7 -221.1 -68.8 -218.2 -51.4 -225C-33.9 -231.9 -17 -248.5 0 -265.2L0 0Z" fill="#3f2101"></path><path d="M-212.1 0C-192.4 -11.5 -172.6 -23 -172.2 -39.3C-171.9 -55.7 -190.9 -76.9 -191.1 -92C-191.3 -107.2 -172.6 -116.4 -159.5 -127.2C-146.4 -138 -138.9 -150.5 -127.2 -159.5C-115.5 -168.5 -99.6 -173.9 -84.5 -175.4C-69.3 -176.9 -55 -174.6 -41.1 -180C-27.1 -185.5 -13.6 -198.8 0 -212.1L0 0Z" fill="#691515"></path><path d="M-159.1 0C-144.3 -8.6 -129.4 -17.2 -129.2 -29.5C-128.9 -41.7 -143.2 -57.6 -143.3 -69C-143.5 -80.4 -129.4 -87.3 -119.6 -95.4C-109.8 -103.5 -104.2 -112.9 -95.4 -119.6C-86.6 -126.3 -74.7 -130.4 -63.3 -131.5C-52 -132.7 -41.3 -130.9 -30.8 -135C-20.4 -139.1 -10.2 -149.1 0 -159.1L0 0Z" fill="#900044"></path><path d="M-106.1 0C-96.2 -5.7 -86.3 -11.5 -86.1 -19.7C-85.9 -27.8 -95.5 -38.4 -95.6 -46C-95.7 -53.6 -86.3 -58.2 -79.7 -63.6C-73.2 -69 -69.4 -75.3 -63.6 -79.7C-57.7 -84.2 -49.8 -86.9 -42.2 -87.7C-34.7 -88.5 -27.5 -87.3 -20.5 -90C-13.6 -92.8 -6.8 -99.4 0 -106.1L0 0Z" fill="#950091"></path><path d="M-53 0C-48.1 -2.9 -43.1 -5.7 -43.1 -9.8C-43 -13.9 -47.7 -19.2 -47.8 -23C-47.8 -26.8 -43.1 -29.1 -39.9 -31.8C-36.6 -34.5 -34.7 -37.6 -31.8 -39.9C-28.9 -42.1 -24.9 -43.5 -21.1 -43.8C-17.3 -44.2 -13.8 -43.6 -10.3 -45C-6.8 -46.4 -3.4 -49.7 0 -53L0 0Z" fill="#7b2cbf"></path></g><g transform="translate(0, 0)"><path d="M318.2 0C293.3 19.1 268.4 38.1 262.3 59.9C256.1 81.6 268.6 106 270.3 130.2C272 154.4 263 178.4 248.8 198.4C234.6 218.4 215.2 234.3 192.7 241.6C170.1 248.9 144.5 247.6 124.1 257.7C103.7 267.8 88.6 289.3 68.8 301.3C49 313.2 24.5 315.7 0 318.2L0 0Z" fill="#201c0e"></path><path d="M265.2 0C244.4 15.9 223.7 31.8 218.5 49.9C213.4 68 223.8 88.3 225.2 108.5C226.7 128.6 219.2 148.7 207.3 165.3C195.5 182 179.3 195.2 160.5 201.3C141.8 207.4 120.4 206.3 103.4 214.7C86.4 223.1 73.8 241.1 57.3 251C40.8 261 20.4 263.1 0 265.2L0 0Z" fill="#3f2101"></path><path d="M212.1 0C195.5 12.7 179 25.4 174.8 39.9C170.7 54.4 179 70.6 180.2 86.8C181.3 102.9 175.3 118.9 165.9 132.3C156.4 145.6 143.5 156.2 128.4 161.1C113.4 165.9 96.3 165.1 82.7 171.8C69.1 178.5 59 192.8 45.8 200.8C32.6 208.8 16.3 210.5 0 212.1L0 0Z" fill="#691515"></path><path d="M159.1 0C146.7 9.5 134.2 19.1 131.1 29.9C128 40.8 134.3 53 135.1 65.1C136 77.2 131.5 89.2 124.4 99.2C117.3 109.2 107.6 117.1 96.3 120.8C85.1 124.4 72.2 123.8 62 128.8C51.8 133.9 44.3 144.6 34.4 150.6C24.5 156.6 12.2 157.9 0 159.1L0 0Z" fill="#900044"></path><path d="M106.1 0C97.8 6.4 89.5 12.7 87.4 20C85.4 27.2 89.5 35.3 90.1 43.4C90.7 51.5 87.7 59.5 82.9 66.1C78.2 72.8 71.7 78.1 64.2 80.5C56.7 83 48.2 82.5 41.4 85.9C34.6 89.3 29.5 96.4 22.9 100.4C16.3 104.4 8.2 105.2 0 106.1L0 0Z" fill="#950091"></path><path d="M53 0C48.9 3.2 44.7 6.4 43.7 10C42.7 13.6 44.8 17.7 45 21.7C45.3 25.7 43.8 29.7 41.5 33.1C39.1 36.4 35.9 39 32.1 40.3C28.4 41.5 24.1 41.3 20.7 42.9C17.3 44.6 14.8 48.2 11.5 50.2C8.2 52.2 4.1 52.6 0 53L0 0Z" fill="#7b2cbf"></path></g></svg>