<svg id="visual" viewBox="0 0 960 540" width="960" height="540" xmlns="http://www.w3.org/2000/svg" xmlns:xlink="http://www.w3.org/1999/xlink" version="1.1"><rect x="0" y="0" width="960" height="540" fill="#161615"></rect><defs><linearGradient id="grad1_0" x1="43.8%" y1="0%" x2="100%" y2="100%"><stop offset="14.444444444444446%" stop-color="#7b2cbf" stop-opacity="1"></stop><stop offset="85.55555555555554%" stop-color="#7b2cbf" stop-opacity="1"></stop></linearGradient></defs><defs><linearGradient id="grad1_1" x1="43.8%" y1="0%" x2="100%" y2="100%"><stop offset="14.444444444444446%" stop-color="#7b2cbf" stop-opacity="1"></stop><stop offset="85.55555555555554%" stop-color="#8b003a" stop-opacity="1"></stop></linearGradient></defs><defs><linearGradient id="grad1_2" x1="43.8%" y1="0%" x2="100%" y2="100%"><stop offset="14.444444444444446%" stop-color="#462102" stop-opacity="1"></stop><stop offset="85.55555555555554%" stop-color="#8b003a" stop-opacity="1"></stop></linearGradient></defs><defs><linearGradient id="grad1_3" x1="43.8%" y1="0%" x2="100%" y2="100%"><stop offset="14.444444444444446%" stop-color="#462102" stop-opacity="1"></stop><stop offset="85.55555555555554%" stop-color="#161615" stop-opacity="1"></stop></linearGradient></defs><defs><linearGradient id="grad2_0" x1="0%" y1="0%" x2="56.3%" y2="100%"><stop offset="14.444444444444446%" stop-color="#7b2cbf" stop-opacity="1"></stop><stop offset="85.55555555555554%" stop-color="#7b2cbf" stop-opacity="1"></stop></linearGradient></defs><defs><linearGradient id="grad2_1" x1="0%" y1="0%" x2="56.3%" y2="100%"><stop offset="14.444444444444446%" stop-color="#8b003a" stop-opacity="1"></stop><stop offset="85.55555555555554%" stop-color="#7b2cbf" stop-opacity="1"></stop></linearGradient></defs><defs><linearGradient id="grad2_2" x1="0%" y1="0%" x2="56.3%" y2="100%"><stop offset="14.444444444444446%" stop-color="#8b003a" stop-opacity="1"></stop><stop offset="85.55555555555554%" stop-color="#462102" stop-opacity="1"></stop></linearGradient></defs><defs><linearGradient id="grad2_3" x1="0%" y1="0%" x2="56.3%" y2="100%"><stop offset="14.444444444444446%" stop-color="#161615" stop-opacity="1"></stop><stop offset="85.55555555555554%" stop-color="#462102" stop-opacity="1"></stop></linearGradient></defs><g transform="translate(960, 0)"><path d="M0 243C-13.3 219.1 -26.6 195.1 -43.8 192.1C-61.1 189 -82.3 206.7 -100.7 209C-119 211.3 -134.6 198.2 -146.5 183.7C-158.4 169.3 -166.6 153.5 -173.6 138.4C-180.5 123.3 -186.2 108.8 -198.2 95.5C-210.2 82.1 -228.4 69.8 -236.9 54.1C-245.4 38.3 -244.2 19.2 -243 0L0 0Z" fill="#291f08"></path><path d="M0 182.3C-10 164.3 -19.9 146.4 -32.9 144C-45.8 141.7 -61.7 155 -75.5 156.8C-89.3 158.5 -101 148.6 -109.9 137.8C-118.8 127 -125 115.1 -130.2 103.8C-135.4 92.5 -139.7 81.6 -148.7 71.6C-157.6 61.6 -171.3 52.3 -177.7 40.6C-184.1 28.8 -183.2 14.4 -182.2 0L0 0Z" fill="#691515"></path><path d="M0 121.5C-6.6 109.5 -13.3 97.6 -21.9 96C-30.5 94.5 -41.1 103.4 -50.3 104.5C-59.5 105.7 -67.3 99.1 -73.3 91.9C-79.2 84.6 -83.3 76.8 -86.8 69.2C-90.3 61.7 -93.1 54.4 -99.1 47.7C-105.1 41 -114.2 34.9 -118.5 27C-122.7 19.2 -122.1 9.6 -121.5 0L0 0Z" fill="#990075"></path><path d="M0 60.8C-3.3 54.8 -6.6 48.8 -11 48C-15.3 47.2 -20.6 51.7 -25.2 52.3C-29.8 52.8 -33.7 49.5 -36.6 45.9C-39.6 42.3 -41.7 38.4 -43.4 34.6C-45.1 30.8 -46.6 27.2 -49.6 23.9C-52.5 20.5 -57.1 17.4 -59.2 13.5C-61.4 9.6 -61.1 4.8 -60.7 0L0 0Z" fill="#7b2cbf"></path></g><g transform="translate(0, 540)"><path d="M0 -243C12.8 -218.8 25.6 -194.7 44.1 -193C62.5 -191.4 86.6 -212.3 100.7 -209C114.7 -205.7 118.6 -178.2 132.8 -166.5C147 -154.9 171.5 -159 190 -151.5C208.5 -144 221 -124.8 216.2 -104.1C211.5 -83.4 189.5 -61.2 191.1 -43.6C192.7 -26 217.8 -13 243 0L0 0Z" fill="#291f08"></path><path d="M0 -182.2C9.6 -164.1 19.2 -146 33 -144.8C46.9 -143.6 65 -159.2 75.5 -156.8C86 -154.3 89 -133.7 99.6 -124.9C110.3 -116.1 128.6 -119.3 142.5 -113.6C156.4 -108 165.7 -93.6 162.2 -78.1C158.6 -62.6 142.1 -45.9 143.3 -32.7C144.5 -19.5 163.4 -9.8 182.3 0L0 0Z" fill="#691515"></path><path d="M0 -121.5C6.4 -109.4 12.8 -97.3 22 -96.5C31.3 -95.7 43.3 -106.2 50.3 -104.5C57.3 -102.9 59.3 -89.1 66.4 -83.3C73.5 -77.4 85.7 -79.5 95 -75.8C104.2 -72 110.5 -62.4 108.1 -52.1C105.7 -41.7 94.7 -30.6 95.5 -21.8C96.3 -13 108.9 -6.5 121.5 0L0 0Z" fill="#990075"></path><path d="M0 -60.7C3.2 -54.7 6.4 -48.7 11 -48.3C15.6 -47.9 21.7 -53.1 25.2 -52.3C28.7 -51.4 29.7 -44.6 33.2 -41.6C36.8 -38.7 42.9 -39.8 47.5 -37.9C52.1 -36 55.2 -31.2 54.1 -26C52.9 -20.9 47.4 -15.3 47.8 -10.9C48.2 -6.5 54.5 -3.3 60.8 0L0 0Z" fill="#7b2cbf"></path></g></svg>