<svg id="visual" viewBox="0 0 900 900" width="900" height="900" xmlns="http://www.w3.org/2000/svg" xmlns:xlink="http://www.w3.org/1999/xlink" version="1.1"><rect x="0" y="0" width="900" height="900" fill="#161615"></rect><defs><linearGradient id="grad1_0" x1="0%" y1="0%" x2="100%" y2="100%"><stop offset="30%" stop-color="#7b2cbf" stop-opacity="1"></stop><stop offset="70%" stop-color="#7b2cbf" stop-opacity="1"></stop></linearGradient></defs><defs><linearGradient id="grad1_1" x1="0%" y1="0%" x2="100%" y2="100%"><stop offset="30%" stop-color="#7b2cbf" stop-opacity="1"></stop><stop offset="70%" stop-color="#990075" stop-opacity="1"></stop></linearGradient></defs><defs><linearGradient id="grad1_2" x1="0%" y1="0%" x2="100%" y2="100%"><stop offset="30%" stop-color="#8b003a" stop-opacity="1"></stop><stop offset="70%" stop-color="#990075" stop-opacity="1"></stop></linearGradient></defs><defs><linearGradient id="grad1_3" x1="0%" y1="0%" x2="100%" y2="100%"><stop offset="30%" stop-color="#8b003a" stop-opacity="1"></stop><stop offset="70%" stop-color="#691515" stop-opacity="1"></stop></linearGradient></defs><defs><linearGradient id="grad1_4" x1="0%" y1="0%" x2="100%" y2="100%"><stop offset="30%" stop-color="#462102" stop-opacity="1"></stop><stop offset="70%" stop-color="#691515" stop-opacity="1"></stop></linearGradient></defs><defs><linearGradient id="grad1_5" x1="0%" y1="0%" x2="100%" y2="100%"><stop offset="30%" stop-color="#462102" stop-opacity="1"></stop><stop offset="70%" stop-color="#291f08" stop-opacity="1"></stop></linearGradient></defs><defs><linearGradient id="grad1_6" x1="0%" y1="0%" x2="100%" y2="100%"><stop offset="30%" stop-color="#161615" stop-opacity="1"></stop><stop offset="70%" stop-color="#291f08" stop-opacity="1"></stop></linearGradient></defs><defs><linearGradient id="grad2_0" x1="0%" y1="0%" x2="100%" y2="100%"><stop offset="30%" stop-color="#7b2cbf" stop-opacity="1"></stop><stop offset="70%" stop-color="#7b2cbf" stop-opacity="1"></stop></linearGradient></defs><defs><linearGradient id="grad2_1" x1="0%" y1="0%" x2="100%" y2="100%"><stop offset="30%" stop-color="#990075" stop-opacity="1"></stop><stop offset="70%" stop-color="#7b2cbf" stop-opacity="1"></stop></linearGradient></defs><defs><linearGradient id="grad2_2" x1="0%" y1="0%" x2="100%" y2="100%"><stop offset="30%" stop-color="#990075" stop-opacity="1"></stop><stop offset="70%" stop-color="#8b003a" stop-opacity="1"></stop></linearGradient></defs><defs><linearGradient id="grad2_3" x1="0%" y1="0%" x2="100%" y2="100%"><stop offset="30%" stop-color="#691515" stop-opacity="1"></stop><stop offset="70%" stop-color="#8b003a" stop-opacity="1"></stop></linearGradient></defs><defs><linearGradient id="grad2_4" x1="0%" y1="0%" x2="100%" y2="100%"><stop offset="30%" stop-color="#691515" stop-opacity="1"></stop><stop offset="70%" stop-color="#462102" stop-opacity="1"></stop></linearGradient></defs><defs><linearGradient id="grad2_5" x1="0%" y1="0%" x2="100%" y2="100%"><stop offset="30%" stop-color="#291f08" stop-opacity="1"></stop><stop offset="70%" stop-color="#462102" stop-opacity="1"></stop></linearGradient></defs><defs><linearGradient id="grad2_6" x1="0%" y1="0%" x2="100%" y2="100%"><stop offset="30%" stop-color="#291f08" stop-opacity="1"></stop><stop offset="70%" stop-color="#161615" stop-opacity="1"></stop></linearGradient></defs><g transform="translate(900, 0)"><path d="M0 286.4C-16.7 257.9 -33.5 229.4 -49 214.5C-64.4 199.6 -78.7 198.4 -95.5 198.2C-112.2 198.1 -131.6 199 -159 199.4C-186.4 199.8 -221.8 199.6 -223.9 178.6C-226 157.5 -195 115.6 -192.8 92.9C-190.7 70.1 -217.5 66.6 -237.9 54.3C-258.3 42 -272.3 21 -286.4 0L0 0Z" fill="#1e1b10"></path><path d="M0 245.5C-14.3 221 -28.7 196.6 -42 183.8C-55.2 171.1 -67.4 170 -81.8 169.9C-96.2 169.8 -112.8 170.6 -136.3 170.9C-159.7 171.2 -190.1 171.1 -191.9 153C-193.8 135 -167.1 99.1 -165.3 79.6C-163.4 60.1 -186.4 57.1 -203.9 46.5C-221.4 36 -233.4 18 -245.5 0L0 0Z" fill="#362103"></path><path d="M0 204.6C-12 184.2 -23.9 163.8 -35 153.2C-46 142.6 -56.2 141.7 -68.2 141.6C-80.2 141.5 -94 142.1 -113.6 142.4C-133.1 142.7 -158.4 142.6 -159.9 127.5C-161.5 112.5 -139.3 82.6 -137.7 66.3C-136.2 50.1 -155.3 47.6 -169.9 38.8C-184.5 30 -194.5 15 -204.6 0L0 0Z" fill="#571d09"></path><path d="M0 163.6C-9.6 147.4 -19.1 131.1 -28 122.6C-36.8 114.1 -44.9 113.4 -54.5 113.3C-64.1 113.2 -75.2 113.7 -90.9 113.9C-106.5 114.1 -126.7 114.1 -127.9 102C-129.2 90 -111.4 66 -110.2 53.1C-108.9 40.1 -124.3 38 -135.9 31C-147.6 24 -155.6 12 -163.6 0L0 0Z" fill="#7b0025"></path><path d="M0 122.7C-7.2 110.5 -14.3 98.3 -21 91.9C-27.6 85.5 -33.7 85 -40.9 84.9C-48.1 84.9 -56.4 85.3 -68.1 85.4C-79.9 85.6 -95 85.5 -96 76.5C-96.9 67.5 -83.6 49.5 -82.6 39.8C-81.7 30 -93.2 28.5 -101.9 23.3C-110.7 18 -116.7 9 -122.7 0L0 0Z" fill="#950055"></path><path d="M0 81.8C-4.8 73.7 -9.6 65.5 -14 61.3C-18.4 57 -22.5 56.7 -27.3 56.6C-32.1 56.6 -37.6 56.9 -45.4 57C-53.2 57.1 -63.4 57 -64 51C-64.6 45 -55.7 33 -55.1 26.5C-54.5 20 -62.1 19 -68 15.5C-73.8 12 -77.8 6 -81.8 0L0 0Z" fill="#920099"></path><path d="M0 40.9C-2.4 36.8 -4.8 32.8 -7 30.6C-9.2 28.5 -11.2 28.3 -13.6 28.3C-16 28.3 -18.8 28.4 -22.7 28.5C-26.6 28.5 -31.7 28.5 -32 25.5C-32.3 22.5 -27.9 16.5 -27.5 13.3C-27.2 10 -31.1 9.5 -34 7.8C-36.9 6 -38.9 3 -40.9 0L0 0Z" fill="#7b2cbf"></path></g><g transform="translate(0, 900)"><path d="M0 -286.4C16.9 -256.4 33.9 -226.4 48.1 -210.6C62.3 -194.8 73.7 -193.1 96.8 -200.9C119.8 -208.7 154.4 -226.1 178.6 -223.9C202.7 -221.7 216.3 -200.1 221.3 -176.4C226.2 -152.8 222.3 -127.1 220.7 -106.3C219.1 -85.5 219.7 -69.6 231.1 -52.7C242.4 -35.8 264.4 -17.9 286.4 0L0 0Z" fill="#1e1b10"></path><path d="M0 -245.5C14.5 -219.8 29 -194.1 41.2 -180.5C53.4 -166.9 63.2 -165.5 82.9 -172.2C102.7 -178.9 132.4 -193.8 153 -191.9C173.7 -190.1 185.4 -171.5 189.6 -151.2C193.9 -131 190.6 -108.9 189.2 -91.1C187.8 -73.3 188.4 -59.7 198 -45.2C207.7 -30.7 226.6 -15.4 245.5 0L0 0Z" fill="#362103"></path><path d="M0 -204.6C12.1 -183.1 24.2 -161.7 34.3 -150.4C44.5 -139.1 52.7 -137.9 69.1 -143.5C85.6 -149.1 110.3 -161.5 127.5 -159.9C144.8 -158.4 154.5 -142.9 158 -126C161.6 -109.1 158.8 -90.8 157.7 -75.9C156.5 -61.1 157 -49.7 165 -37.7C173.1 -25.6 188.8 -12.8 204.6 0L0 0Z" fill="#571d09"></path><path d="M0 -163.6C9.7 -146.5 19.4 -129.4 27.5 -120.3C35.6 -111.3 42.1 -110.3 55.3 -114.8C68.5 -119.3 88.2 -129.2 102 -127.9C115.8 -126.7 123.6 -114.3 126.4 -100.8C129.2 -87.3 127.1 -72.6 126.1 -60.7C125.2 -48.9 125.6 -39.8 132 -30.1C138.5 -20.5 151.1 -10.2 163.6 0L0 0Z" fill="#7b0025"></path><path d="M0 -122.7C7.3 -109.9 14.5 -97 20.6 -90.3C26.7 -83.5 31.6 -82.8 41.5 -86.1C51.3 -89.5 66.2 -96.9 76.5 -96C86.9 -95 92.7 -85.8 94.8 -75.6C96.9 -65.5 95.3 -54.5 94.6 -45.6C93.9 -36.6 94.2 -29.8 99 -22.6C103.9 -15.4 113.3 -7.7 122.7 0L0 0Z" fill="#950055"></path><path d="M0 -81.8C4.8 -73.3 9.7 -64.7 13.7 -60.2C17.8 -55.6 21.1 -55.2 27.6 -57.4C34.2 -59.6 44.1 -64.6 51 -64C57.9 -63.4 61.8 -57.2 63.2 -50.4C64.6 -43.7 63.5 -36.3 63.1 -30.4C62.6 -24.4 62.8 -19.9 66 -15.1C69.2 -10.2 75.5 -5.1 81.8 0L0 0Z" fill="#920099"></path><path d="M0 -40.9C2.4 -36.6 4.8 -32.3 6.9 -30.1C8.9 -27.8 10.5 -27.6 13.8 -28.7C17.1 -29.8 22.1 -32.3 25.5 -32C29 -31.7 30.9 -28.6 31.6 -25.2C32.3 -21.8 31.8 -18.2 31.5 -15.2C31.3 -12.2 31.4 -9.9 33 -7.5C34.6 -5.1 37.8 -2.6 40.9 0L0 0Z" fill="#7b2cbf"></path></g></svg>